<svg width="129" height="48" viewBox="0 0 129 48" fill="none" xmlns="http://www.w3.org/2000/svg">
<path d="M65.1594 0.778923C61.5184 1.25384 54.9752 3.15349 46.4267 6.26682C38.5643 9.1163 30.438 10.8577 23.5781 11.227L17.6153 11.4909L15.1352 13.4961C12.0746 16.0817 6.58673 18.984 3.3151 19.7755L0.782227 20.4087V22.7833C0.782227 25.3161 1.57375 27.3741 2.41804 26.8992C2.68188 26.6881 2.89296 25.5272 2.89296 24.208C2.89296 22.836 3.1568 21.8862 3.47341 21.8862C5.32029 21.8862 12.2329 18.1397 17.457 14.2876C18.829 13.285 19.8316 13.0739 23.5253 13.0211C29.3298 12.9156 37.72 11.3326 44.5798 8.958C62.6793 2.73135 65.5288 2.09813 73.6024 2.52027C81.0427 2.94242 84.7365 3.83948 99.406 8.64139C106.266 10.9104 113.126 13.0739 114.656 13.4433C117.294 14.0765 117.98 14.6042 116.872 15.2902C116.081 15.8179 116.239 19.0367 117.136 19.7755C117.664 20.1976 118.772 20.3032 120.513 20.0921C123.732 19.6699 124.524 20.4615 124.524 24.208C124.524 26.266 124.735 26.8992 125.315 26.8992C125.896 26.8992 126.159 26.1604 126.265 23.9442C126.371 21.4113 126.212 20.7253 125.157 19.4589C123.943 18.0341 122.888 17.8231 119.775 18.298C119.036 18.4035 118.666 18.1397 118.561 17.2426C118.403 16.24 118.772 15.8706 120.513 15.1846C121.727 14.7097 122.677 14.0237 122.677 13.6544C122.677 13.0739 121.727 12.8101 115.025 11.4909C114.181 11.3326 108.218 9.48568 101.833 7.37495C95.4484 5.26422 87.7442 2.94242 84.6837 2.20367C78.5098 0.673387 70.4363 0.0929367 65.1594 0.778923Z" fill="#F65B08"/>
<path d="M83.0479 10.0131C81.0954 14.1818 81.3065 14.129 63.4708 14.5511C54.7641 14.7622 47.5348 15.026 47.3765 15.2371C47.2182 15.3954 47.2182 15.8703 47.3765 16.2925C47.7987 17.4006 76.4518 16.9257 79.7762 15.7648C82.4674 14.7622 85.2113 11.7016 85.2113 9.64368C85.2113 7.26911 84.2615 7.42742 83.0479 10.0131Z" fill="#F65B08"/>
<path d="M20.2534 20.5142C15.8209 22.0972 11.8633 25.8966 11.8633 28.6405C11.8633 30.4874 13.3408 30.0125 14.4489 27.7962C18.2482 20.3559 29.7517 20.1976 33.6038 27.5324C34.8175 29.8014 35.9256 30.4346 36.4533 29.0627C37.2976 26.8992 32.2318 21.8334 28.0104 20.567C24.8443 19.6171 22.7863 19.6171 20.2534 20.5142Z" fill="#F65B08"/>
<path d="M100.25 20.2497C97.8756 20.883 94.604 22.6771 93.3375 24.1018C91.8073 25.7376 90.3825 28.6399 90.7519 29.2731C91.3851 30.3285 92.5988 29.748 93.4431 27.9539C93.918 26.9513 95.29 25.3155 96.4509 24.3657C98.4033 22.8354 99.0365 22.6771 102.625 22.5188C106.371 22.3077 106.688 22.4132 109.168 24.1018C110.646 25.0516 112.229 26.6875 112.809 27.7956C113.337 28.9037 114.128 29.8008 114.55 29.8008C115.87 29.8008 115.342 27.3734 113.495 24.9461C110.698 21.3051 104.524 19.1416 100.25 20.2497Z" fill="#F65B08"/>
<path d="M43.9467 29.3796L42.0998 35.8701L24.1058 36.0284C6.85061 36.1339 6.05908 36.1867 6.05908 37.1365C6.05908 37.6642 6.42846 38.2974 6.90337 38.4557C7.37829 38.614 15.7684 38.7723 25.5306 38.7723C41.6776 38.7723 43.63 38.8779 46.2685 39.7749C49.2762 40.8303 50.3844 40.5664 50.3844 38.8779C50.3844 38.5085 52.1257 39.8804 54.2892 41.9912C56.4527 44.0491 58.8801 46.2126 59.7244 46.7403C61.3602 47.8484 63.3126 48.0595 63.8403 47.2152C64.0513 46.8986 64.9484 46.7931 65.951 47.0042C67.2702 47.2152 67.9562 47.0569 68.7477 46.2654C69.2754 45.7377 70.3835 45.1045 71.1751 44.8934C71.9138 44.7351 72.547 44.313 72.547 44.0491C72.547 43.4159 76.1353 39.8277 76.7685 39.8277C77.0851 39.8277 77.2962 40.0388 77.2962 40.3554C77.2962 41.1469 78.932 40.9886 82.3091 39.8277C85.1586 38.8779 86.7417 38.7723 103.153 38.7723C117.558 38.7723 128.711 38.7723 128.922 38.2446C129.608 36.3977 120.988 36.1339 102.942 36.0284L85.0531 35.8701L83.3645 29.9073C82.4147 26.6356 81.4649 23.7861 81.3066 23.6278C81.1482 23.4168 79.7235 23.6806 78.1405 24.1555C76.6102 24.6304 75.0271 25.0526 74.6578 25.0526C74.2884 25.0526 73.5496 25.422 73.0747 25.8441C72.2832 26.5829 71.9138 26.5301 69.592 25.5275C66.7425 24.2611 64.368 24.1028 58.2996 24.8943C54.7641 25.3692 53.9726 25.2637 50.701 24.1555C48.6958 23.4695 46.7434 22.9419 46.4268 22.9419C46.0574 22.9419 44.9493 25.7913 43.9467 29.3796ZM68.1145 26.9522C70.3308 27.691 72.4415 28.1659 72.8109 28.0076C73.3913 27.7965 73.8662 28.6936 74.6578 31.332C75.977 35.7645 76.4519 38.2446 76.0297 38.2446C75.8714 38.2446 73.3385 36.2922 70.4363 33.8649C64.5263 28.9047 63.3126 28.6408 60.6214 31.4375C58.5107 33.6538 57.5609 33.4955 57.9302 30.9626C58.2996 28.8519 60.6742 26.3718 62.7321 25.9496C63.3654 25.8441 63.893 25.6858 63.9986 25.633C64.1041 25.633 65.951 26.2135 68.1145 26.9522ZM56.9276 28.0604C56.1889 29.8017 56.0833 32.9678 56.7166 33.7593C57.7719 35.0258 59.6716 34.7092 61.624 32.9678C62.6266 32.0708 63.7347 31.3848 64.1041 31.3848C64.6846 31.3848 73.7079 38.5612 73.9718 39.2472C74.0773 39.4055 73.919 39.8804 73.6552 40.3026C73.2858 40.883 72.5998 40.6192 70.4363 38.7723C68.3256 37.031 67.5868 36.6616 67.1119 37.1365C66.637 37.6114 67.0591 38.2974 69.0643 40.0388C70.6474 41.4107 71.5444 42.5189 71.2806 42.8882C70.6474 43.8908 69.9614 43.627 67.323 41.4107C65.951 40.2498 64.6846 39.3 64.4735 39.3C63.4709 39.3 64.3152 41.0941 66.1093 42.6772C67.534 44.0491 67.9034 44.6824 67.4813 45.1045C67.0591 45.5266 66.2148 45.1573 64.4207 43.5742C63.0488 42.3606 61.6768 41.5163 61.4129 41.6746C60.5686 42.2023 60.8853 43.3632 62.1517 44.2074C63.0487 44.8407 63.1543 45.1573 62.6794 45.6322C62.2045 46.1599 61.1491 45.5266 57.8247 42.7827C55.5029 40.8303 53.0756 38.5085 52.4423 37.6642C51.4397 36.2394 51.387 35.8701 51.9674 33.3372C53.1811 28.2187 53.8143 27.1633 55.714 27.1633C57.0859 27.1633 57.297 27.3216 56.9276 28.0604Z" fill="#FEFEFE"/>
</svg>
